<svg width="60" height="39" viewBox="0 0 76 39" fill="none" xmlns="http://www.w3.org/2000/svg">
<path d="M38 0C11.1284 0.476151 0 19.5 0 19.5C0 19.5 11.1284 38.5238 38 39C64.8718 38.5238 76 19.5 76 19.5C76 19.5 64.8718 0.476151 38 0Z" fill="#D8ECFE"/>
<path d="M71.2717 13.6682C71.6211 14.1794 71.7921 14.4715 71.7921 14.4715C71.7921 14.4715 60.6639 33.4954 33.7921 33.9717C16.7834 33.6703 6.08444 25.9389 0.520264 20.3034C2.99516 23.9243 14.4529 38.5827 37.9998 39C64.8716 38.5239 75.9998 19.5 75.9998 19.5C75.9998 19.5 74.4982 16.9361 71.2717 13.6682Z" fill="#C4E2FF"/>
<path d="M38 39C48.814 39 57.5805 30.2696 57.5805 19.5C57.5805 8.73045 48.814 0 38 0C27.1859 0 18.4194 8.73045 18.4194 19.5C18.4194 30.2696 27.1859 39 38 39Z" fill="#4076A9"/>
<path d="M38.0001 30.3946C31.9679 30.3946 27.0603 25.5073 27.0603 19.4999C27.0603 13.4923 31.9678 8.60501 38.0001 8.60501C44.0323 8.60501 48.9398 13.4923 48.9398 19.4999C48.9398 25.5073 44.0323 30.3946 38.0001 30.3946Z" fill="#465A61"/>
<path d="M44.5337 18.2635C41.6155 18.2635 39.2412 15.899 39.2412 12.9928C39.2412 10.0863 41.6155 7.722 44.5337 7.722C47.452 7.722 49.8263 10.0865 49.8263 12.9928C49.8261 15.899 47.452 18.2635 44.5337 18.2635Z" fill="#D8ECFE"/>
<path d="M49.0892 3.42786C51.2596 6.5677 52.5313 10.3714 52.5313 14.4714C52.5313 25.2411 43.7647 33.9714 32.9507 33.9714C28.8337 33.9714 25.0142 32.705 21.8616 30.5435C25.3923 35.6509 31.3029 38.9999 38 38.9999C48.8141 38.9999 57.5805 30.2694 57.5805 19.4999C57.5805 12.8304 54.2177 6.94392 49.0892 3.42786V3.42786Z" fill="#44566C"/>
</svg>
