<svg width="100" height="100" viewBox="0 0 100 100" fill="none" xmlns="http://www.w3.org/2000/svg">
<path d="M46.8189 82.4429C43.6354 78.705 38.3214 74.7072 33.1749 72.1779C27.9783 69.6236 23.0424 68.205 17.4383 67.6564C16.3334 67.5493 15.4173 67.4493 15.4027 67.435C15.3884 67.435 15.417 55.8986 15.4741 41.8307L15.5684 16.2536L16.5887 16.3536C22.8535 16.975 29.8459 19.3421 35.1365 22.6414C39.696 25.4843 44.4042 29.8743 47.406 34.0807L48.1615 35.1393V59.435C48.1615 72.7971 48.1043 83.7279 48.0357 83.7257C47.9643 83.7236 47.4207 83.1472 46.822 82.4443L46.8189 82.4429ZM52.0086 59.3736V34.9764L53.4675 33.0271C55.3301 30.5386 59.0767 26.7893 61.554 24.9357C68.1765 19.9793 75.3602 17.1786 83.6074 16.3357L84.6537 16.2286V41.8414V67.455L83.44 67.5693C71.9563 68.6379 62.0006 73.3757 54.2135 81.4772L52.0086 83.7714V59.3743V59.3736ZM59.1236 82.1129C63.6308 77.8843 69.5975 74.5243 75.5912 72.8379C78.7276 71.9557 82.8063 71.34 85.5139 71.34C86.9335 71.34 87.7209 71.0329 88.165 70.3036C88.4993 69.7536 88.5029 69.5172 88.5036 48.7629L88.5042 27.7757L89.132 27.89C89.477 27.9614 90.4566 28.2329 91.3083 28.5043L92.8569 28.9971V55.1893C92.8569 69.595 92.7997 81.3814 92.729 81.3814C92.6576 81.3814 91.6227 81.16 90.4271 80.8886C85.7026 79.8243 81.8118 79.4586 76.702 79.5964C70.504 79.7679 65.687 80.6322 59.9609 82.6107L57.7845 83.3629L59.1238 82.1064L59.1236 82.1129ZM40.0387 82.52C37.6607 81.6686 33.7335 80.665 31.0822 80.2322C27.4774 79.6464 24.9904 79.4907 20.5722 79.5893C16.1824 79.6821 13.5271 79.9893 9.90481 80.8114C8.89195 81.04 7.8561 81.2757 7.60288 81.3257L7.14288 81.4257L7.14367 55.1636L7.14453 28.9007L9.11088 28.3293C10.1923 28.015 11.1714 27.7221 11.2865 27.6864C11.4529 27.615 11.4957 31.8936 11.4957 48.65C11.4957 71.5479 11.4457 70.2714 12.4227 70.9136C12.7627 71.135 13.4692 71.235 15.4865 71.3564C23.5041 71.8136 31.1117 74.5057 37.3224 79.0864C38.6617 80.0743 41.8759 82.7871 42.0601 83.085C42.1887 83.2921 42.103 83.2707 40.0392 82.5279L40.0387 82.52Z" fill="#011627"/>
</svg>
